<svg width="138" height="69" viewBox="0 0 138 69" fill="none" xmlns="http://www.w3.org/2000/svg">
<path d="M1 68V68C7.00397 65.0953 13.8461 64.4234 20.3004 66.1048L20.4952 66.1556C25.1406 67.3657 30.0158 67.3878 34.6719 66.2198L38.7841 65.1882C44.5076 63.7524 50.4999 63.7767 56.2115 65.2589L58.5548 65.8671C63.9089 67.2565 69.5579 66.9943 74.7603 65.1151V65.1151C80.3569 63.0934 86.4592 62.9469 92.1464 64.6978L98 66.5" stroke="#5E1EE5" stroke-width="2"/>
<path d="M127 0C128.132 5.5391 132.461 9.86785 138 11C132.461 12.1321 128.132 16.4609 127 22C125.868 16.4609 121.539 12.1321 116 11C121.539 9.86785 125.868 5.5391 127 0Z" fill="#2DBE5F"/>
</svg>
