<svg width="221" height="61" viewBox="0 0 221 61" fill="none" xmlns="http://www.w3.org/2000/svg">
<path d="M-23 6V6C-16.996 3.09528 -10.1539 2.42343 -3.69961 4.10482L-3.50481 4.15557C1.14058 5.36573 6.01576 5.3878 10.6719 4.21976L14.7841 3.18817C20.5076 1.7524 26.4999 1.77673 32.2115 3.25894L34.5548 3.86706C39.9089 5.25648 45.5579 4.99434 50.7603 3.11506V3.11506C56.3569 1.09335 62.4592 0.946911 68.1464 2.69783L74 4.5" stroke="#5E1EE5" stroke-width="2"/>
<path d="M207.5 34C208.889 40.798 214.202 46.1105 221 47.5C214.202 48.8895 208.889 54.202 207.5 61C206.111 54.202 200.798 48.8895 194 47.5C200.798 46.1105 206.111 40.798 207.5 34Z" fill="#2DBE5F"/>
</svg>
